<svg width="181" height="25" viewBox="0 0 181 25" fill="none" xmlns="http://www.w3.org/2000/svg">
<path d="M14.2486 19.2221H0V0.591885H14.2486C19.2084 0.591885 20.9859 1.35287 20.9859 5.04509V14.7689C20.9859 18.4329 19.3231 19.2221 14.2486 19.2221ZM17.0869 14.0079V5.83427C17.0869 3.77678 16.1408 3.24126 13.2452 3.24126H3.92769V16.5727H13.2452C16.0548 16.5727 17.0869 16.0372 17.0869 14.0079ZM29.2979 19.2221H25.3989V5.38332H29.2979V6.96166C29.728 6.36978 30.5594 5.38332 33.627 5.38332H40.823V8.0327H31.8782C30.072 8.0327 29.4126 8.79368 29.2979 10.1466V19.2221ZM58.8594 12.5986H48.5384V19.2221H44.6107V0.591885H58.8594C63.9338 0.591885 65.5966 1.35287 65.5966 5.04509V8.14543C65.5966 11.8658 63.8478 12.5986 58.8594 12.5986ZM61.6976 7.44081V5.80608C61.6976 3.77677 60.8376 3.24126 58.1713 3.24126H48.5384V10.0338H58.1713C60.8376 10.0338 61.6976 9.52649 61.6976 7.44081ZM89.2597 19.2221H76.0432C71.3128 19.2221 69.3632 18.0101 69.3632 14.3179V9.61104C69.3632 6.62344 71.4561 5.38332 75.5845 5.38332H85.3034C88.801 5.38332 90.0911 6.53889 90.0911 9.04735V10.3439C90.0911 12.9651 89.145 13.6415 85.8481 13.6415H73.2049V14.1206C73.2049 16.1781 74.2083 16.77 77.0466 16.77H89.2597V19.2221ZM73.2049 11.9504H84.0706C85.7334 11.9504 86.2781 11.6122 86.2781 10.372V9.66741C86.2781 8.42728 85.5901 7.86359 83.8126 7.86359H76.1579C74.2083 7.86359 73.2049 8.48366 73.2049 9.94927V11.9504ZM108.252 19.2221H98.1888V25H94.2611V5.38332H108.252C113.183 5.38332 114.96 6.11612 114.96 9.63923V14.938C114.96 18.4329 113.212 19.2221 108.252 19.2221ZM111.033 14.3461V10.2593C111.033 8.51183 110.115 8.0327 107.764 8.0327H98.1888V16.5727H107.65C110.201 16.5727 111.033 16.0936 111.033 14.3461ZM139.135 19.2221H125.918C121.188 19.2221 119.238 18.0101 119.238 14.3179V9.61104C119.238 6.62344 121.331 5.38332 125.459 5.38332H135.178C138.676 5.38332 139.966 6.53889 139.966 9.04735V10.3439C139.966 12.9651 139.02 13.6415 135.723 13.6415H123.08V14.1206C123.08 16.1781 124.083 16.77 126.922 16.77H139.135V19.2221ZM123.08 11.9504H133.946C135.608 11.9504 136.153 11.6122 136.153 10.372V9.66741C136.153 8.42728 135.465 7.86359 133.688 7.86359H126.033C124.083 7.86359 123.08 8.48366 123.08 9.94927V11.9504ZM147.863 19.2221H143.935V15.5299H147.863V19.2221ZM172.476 19.2221H158.342C153.383 19.2221 151.748 18.4893 151.748 15.2198V14.628C151.748 11.5558 152.981 10.8512 158.4 10.8512H168.577V10.1184C168.577 8.22999 167.66 7.77903 164.879 7.77903H152.58V5.38332H165.768C170.756 5.38332 172.476 6.17249 172.476 9.63923V19.2221ZM158.887 16.8264H168.577V12.5141H158.887C156.422 12.5141 155.561 12.9087 155.561 14.4588V14.8816C155.561 16.4318 156.422 16.8264 158.887 16.8264ZM181 19.2221H177.044V5.38332H181V19.2221ZM180.971 3.43855H177.158V0H180.971V3.43855Z" fill="#D1D1D1" fill-opacity="0.91"/>
</svg>
