<svg width="1134" height="1135" viewBox="0 0 1134 1135" fill="none" xmlns="http://www.w3.org/2000/svg">
<path d="M972.131 555.895C974.508 562.767 976.44 569.719 977.452 576.892C978.568 584.843 978.791 592.782 977.221 600.71C976.551 604.126 975.384 607.327 973.032 609.966C972.397 610.676 972.079 611.152 972.8 612.055C983.435 625.311 987.641 641.127 990.507 657.403C993.7 675.569 996.138 693.877 1000.82 711.759C1001.68 715.072 1003.15 718.314 1003.48 721.673C1004.33 730.361 1009.77 737.137 1012.59 744.975C1022.32 772.044 1031.9 799.256 1033.05 828.334C1034.83 872.984 1024.19 914.615 998.893 951.649C971.899 991.192 934.039 1010.77 885.922 1009.02C846.854 1007.6 810.005 997.687 775.752 978.572C775.587 978.478 775.434 978.383 775.276 978.289C773.059 976.932 770.915 974.672 768.607 974.492C766.203 974.294 765.989 977.997 764.259 979.638C755.459 987.971 745.309 992.816 732.983 992.378C731.9 992.343 730.999 992.068 730.437 993.649C725.147 1008.6 713.841 1016.81 699.19 1021.08C692.159 1023.13 685.071 1022.96 678.103 1020.71C676.566 1020.21 676.118 1020.59 675.506 1021.97C665.913 1043.69 638.084 1053.5 617.094 1042.56C615.456 1041.71 614.644 1041.64 613.245 1043.17C606.1 1050.96 596.744 1054.58 586.64 1056.49C573.14 1059.03 560.836 1056.34 550.222 1047.32C548.804 1046.12 547.977 1046.78 546.854 1047.44C538.406 1052.41 529.305 1055.39 519.508 1055.87C505.474 1056.55 493.925 1050.73 483.962 1041.4C481.717 1039.31 480.22 1038.91 477.237 1040.24C461.73 1047.1 446.858 1045.18 432.921 1035.8C425.907 1031.09 420.141 1025.06 416.042 1017.62C415.067 1015.84 414.119 1015.62 412.333 1016.01C404.634 1017.69 396.906 1017.91 389.171 1016.15C378.302 1013.67 369.894 1007.4 362.868 999.018C358.202 993.451 354.205 987.446 351.25 980.78C350.769 979.689 350.321 979.053 348.886 979.036C327.748 978.701 313.862 967.825 305.743 948.874C304.83 946.744 304.071 946.306 301.757 946.649C279.185 949.974 256.567 950.249 233.893 947.466C216.837 945.378 200.44 941.22 184.875 933.746C167.06 925.198 152.404 912.828 139.913 897.691C125.947 880.776 116.677 861.421 110.315 840.558C102.275 814.186 99.4006 787.298 101.317 759.764C102.921 736.734 109.209 715.073 118.979 694.37C124.541 682.572 129.037 670.053 136.839 659.571C147.233 645.593 152.522 629.409 159.162 613.745C161.323 608.649 160.965 604.32 159.066 599.2C152.733 582.085 151.479 564.702 158.351 547.314C158.68 546.485 159.003 545.657 159.571 544.216C157.5 545.231 155.992 546.015 154.445 546.712C151.576 548.012 148.667 549.198 145.555 549.839C137.707 551.451 131.339 548.358 127.999 541.06C124.4 533.2 124.348 524.83 125.046 516.464C127.325 489.123 135.87 463.562 147.487 438.928C159.1 414.298 173.359 391.399 192.122 371.491C192.303 371.298 192.417 371.054 192.74 370.566C188.034 369.987 183.52 369.329 179.103 368.103C169.386 365.402 160.563 361.135 153.566 353.638C152.619 352.622 151.723 351.549 150.907 350.426C144.539 341.675 145.809 333.412 154.513 327.05C159.536 323.379 164.991 320.387 170.394 317.34C199.777 300.792 222.082 277.06 240.55 249.195C254.123 228.72 267.952 208.409 283.012 188.954C316.142 146.143 358.95 116.899 409.283 98.0814C434.101 88.8026 459.746 82.7756 485.845 78.5533C516.327 73.6218 546.996 71.5788 577.846 73.0429C631.008 75.5627 681.442 88.0707 727.84 114.856C739.787 121.751 750.809 129.924 758.657 141.631C759.564 142.987 760.709 142.635 761.844 142.573C773.03 141.943 784.115 142.891 794.939 145.672C810.628 149.706 823.318 158.724 833.705 170.908C845.759 185.051 853.493 201.212 853.72 220.11C853.777 224.855 855.404 226.274 859.418 228.016C887.622 240.229 910.641 259.035 928.606 283.989C944.467 306.025 953.978 330.739 959.393 357.207C963.677 378.069 965.848 399.168 967.213 420.381C968.432 439.359 969.796 458.324 974.912 476.774C977.092 484.662 979.959 492.261 984.018 499.383C988.233 506.76 993.743 512.838 1000.96 517.458C1011.59 524.256 1013.23 533.28 1005.31 543.199C997.691 552.757 987.606 557.251 975.238 555.957C974.405 555.872 973.581 555.758 972.749 555.668C972.68 555.645 972.594 555.713 972.131 555.895ZM533.739 1040.52C534.193 1040.44 534.641 1040.37 534.868 1039.88V1039.94C538.445 1038.83 541.382 1036.49 544.665 1034.82C548.918 1032.65 552.529 1032.94 555.886 1036.26C564.624 1044.87 574.983 1047.09 586.601 1044.28C593.875 1042.52 600.826 1039.98 605.539 1033.61C610.336 1027.14 613.59 1026.47 620.541 1030.72C626.308 1034.24 632.442 1036.42 639.275 1035.22C646.646 1033.92 653.025 1030.43 658.672 1025.57C661.847 1022.83 663.905 1019.4 665.136 1015.4C667.506 1007.73 671.543 1005.64 679.016 1008.36C692.29 1013.17 703.244 1009.04 712.917 999.748C715.616 997.18 717.833 994.31 718.632 990.556C718.899 989.878 719.233 989.225 719.415 988.52C721.524 980.411 723.656 979.096 731.804 980.127C739.645 981.115 746.631 978.899 752.561 973.59C754.994 972.507 756.133 970.222 757.613 968.229C758.243 967.387 757.92 966.932 757.239 966.417C753.526 963.642 749.954 960.687 746.608 957.474C745.792 956.692 745.145 956.606 744.243 957.414C742.31 959.14 740.286 960.755 738.301 962.422C735.109 964.707 731.86 966.932 728.736 969.312C726.428 971.073 723.554 972.069 721.756 974.5C717.464 975.832 714.096 978.847 710.179 980.857C704.497 983.993 698.815 987.129 693.134 990.256C688.763 991.664 684.873 994.13 680.666 995.908C678.001 997.042 675.121 997.798 672.852 999.766C667.744 1000.86 663.225 1003.49 658.405 1005.33C652.804 1007.34 647.202 1009.37 641.6 1011.38C637.449 1012.64 633.271 1013.82 629.154 1015.19C625.667 1016.35 621.868 1016.51 618.619 1018.43C613.573 1018.84 608.793 1020.53 603.855 1021.47C596.829 1022.75 589.793 1023.97 582.694 1024.8C573.583 1025.85 564.408 1025.94 555.274 1026.61C551.68 1026.14 548.062 1026.35 544.455 1026.33C537.912 1025.8 531.375 1025.29 524.832 1024.76C524.407 1024.62 523.987 1024.35 523.561 1024.34C518.374 1024.25 513.276 1023.36 508.162 1022.61C502.968 1021.85 497.769 1021.1 492.575 1020.34C488.402 1018.94 484.082 1018.22 479.761 1017.47C473.082 1015.58 466.397 1013.69 459.718 1011.8C450.373 1008.55 441.046 1005.25 431.934 1001.4C428.028 999.654 424.127 997.919 420.22 996.175C413.541 992.867 406.862 989.56 400.183 986.261C396.276 984.002 392.42 981.665 388.457 979.526C383.825 977.035 379.533 973.925 374.673 971.846C372.179 969.604 369.218 968.083 366.254 966.597C361.95 963.453 357.471 960.575 352.889 957.869C345.932 952.706 338.629 948.015 332.126 942.251C331.405 941.426 331.281 939.914 329.495 940.421C325.492 941.572 321.449 942.612 317.411 943.651C316.363 943.918 316.079 944.296 316.578 945.369C321.919 956.958 330.305 964.707 343.199 967.087C347.225 967.825 351.143 966.7 355.112 967.061C356.642 967.808 358.145 968.607 359.392 969.801C359.84 970.712 360.397 971.588 360.719 972.55C363.021 979.32 366.911 985.161 371.322 990.694C382.838 1005.15 397.631 1008.4 414.062 1003.05C414.256 1002.98 414.443 1002.92 414.636 1002.86C419.767 1001.9 422.449 1003.2 424.592 1008.03C428.294 1016.38 434.14 1022.87 441.942 1027.38C452.845 1033.7 464.055 1034.15 475.225 1027.82C481.247 1024.41 484.302 1024.82 489.252 1029.83C490.426 1031.02 491.606 1032.2 492.836 1033.33C503.376 1042.96 515.408 1046.38 529.288 1042.07C530.859 1041.83 532.424 1041.52 533.739 1040.52ZM853.624 460.708L853.596 460.691C853.646 459.891 852.966 459.584 852.495 459.221C849.247 456.702 847.54 453.359 847.018 449.329C846.814 447.763 846.326 446.276 845.38 444.977C845.215 444.353 844.994 443.734 844.892 443.098C841.728 423.043 830.637 407.788 815.555 395.077C804.992 386.172 794.298 377.422 783.917 368.302C779.455 364.38 779.052 360.674 782.823 356.061C783.781 354.886 783.628 353.967 783.043 352.797C781.439 349.591 778.967 347.077 776.585 344.484C766.215 333.191 753.542 324.735 741.403 315.581C723.695 302.228 704.253 292.444 683.314 285.413C673.08 281.973 662.465 281.355 651.834 280.765C647.559 280.527 643.885 278.955 641.032 275.743C636.202 270.306 630.09 267.355 623.042 266.021C612.433 264.012 601.705 263.252 590.95 262.929C556.306 261.89 521.792 264.183 487.348 267.52C472.095 268.995 457.059 271.804 442.697 277.456C438.926 278.937 435.138 280.431 431.708 283.24C432.229 283.637 432.643 283.875 432.961 284.204C438.546 289.97 437.179 296.082 429.689 298.874C427.262 299.782 424.813 300.622 422.437 301.637C395.777 313.005 370.653 327.255 346.181 342.697C341.753 345.494 337.58 348.695 333.174 351.793C334.337 352.81 335.403 352.457 336.361 352.56C342.83 353.241 349.277 354.086 355.293 356.73C358.27 358.041 360.334 360.283 360.3 363.779C360.271 367.213 358.123 369.17 355.186 370.384C352.186 371.627 349.226 372.944 346.453 374.652C330.402 384.543 316.952 397.443 304.926 411.761C293.121 425.812 283.103 441.288 271.446 455.487C270.101 457.127 269.053 459.022 268.661 461.184C267.21 468.556 265.032 475.616 260.043 481.484C259.89 481.665 259.912 482 259.856 482.262L259.867 482.256C259.464 482.239 259.3 482.466 259.272 482.829C254.945 486.739 250.591 490.626 246.293 494.565C240.872 499.531 235.917 504.916 232.243 511.346C230.105 515.086 228.551 519.041 228.529 523.434C228.523 524.456 228.234 525.732 229.822 526.101C233.632 526.986 237.238 528.411 240.578 530.471C241.371 530.959 241.893 530.993 242.091 529.841C242.522 527.344 244.212 525.562 245.76 523.718C253.211 514.848 261.942 507.436 271.428 500.835C296.949 483.079 324.42 468.982 353.048 457.048C382.192 444.897 412.458 437.338 443.972 435.028C467.537 433.303 491.022 434.739 514.45 437.332C533.739 439.466 552.836 442.803 571.887 446.52C607.903 453.552 642.206 465.401 674.939 481.938C695.669 492.409 715.888 503.849 736.884 513.814C765.818 527.548 795.79 536.424 828.205 535.578C838.95 535.3 849.695 536.311 860.353 537.899C875.082 540.096 889.415 543.58 902.633 550.753C905.835 552.489 908.813 554.544 911.242 557.262C914.152 560.525 914.092 563.255 911.148 566.518C910.641 567.086 910.418 567.46 910.796 568.17C914.246 574.679 917.774 581.143 921.731 587.368C930.228 577.454 932.623 566.104 930.683 553.67C928.263 538.149 919.774 526.651 907.062 517.86C899.715 512.776 891.707 509.008 883.673 505.245C880.661 501.018 877.88 496.687 877.725 491.24C877.931 484.639 875.554 479.072 871.159 474.226C866.293 468.852 860.756 464.379 854.225 461.196C854.236 460.764 854.026 460.617 853.624 460.708ZM717.651 894.1C717.923 893.129 718.253 892.167 718.462 891.179C719.755 885.123 722.04 879.513 725.822 874.574C726.996 873.036 729.4 871.395 729.195 870.124C728.952 868.569 726.542 867.375 725.096 865.992C722.527 863.535 722.635 863.612 720.231 866.181C716.597 870.055 714.641 875.373 709.792 878.225C709.174 878.585 708.687 879.573 708.568 880.338C707.695 885.973 704.429 890.57 702.064 895.569C699.462 899.495 698.13 904.169 694.949 907.759C692.851 908.429 690.793 909.271 688.655 909.735C683.507 910.861 679.09 913.945 673.964 915.096C673.772 915.113 673.585 915.13 673.391 915.147C673.028 915.139 672.671 915.13 672.308 915.13C669.728 914.726 667.166 915.019 664.597 915.293C656.597 916.153 648.869 918.335 641.078 920.207C639.893 920.345 638.708 920.517 637.518 920.637C621.193 922.389 604.818 922.802 588.432 922.252C577.625 921.883 566.83 921.118 556.079 919.743C551.22 919.125 546.463 917.922 541.576 917.57C540.504 917.347 539.426 917.14 538.354 916.9C527.519 914.486 516.468 913.051 505.866 909.615C502.934 908.481 499.935 907.502 497.077 906.205C467.86 892.932 437.094 885.449 405.382 881.446C403.612 881.223 403.159 881.85 402.694 883.276C400.29 890.587 396.361 897.055 391.615 903.06C390.492 904.486 389.262 905.826 388.066 907.227C388.893 907.948 389.67 907.751 390.368 907.785C401.963 908.318 413.365 910.216 424.682 912.69C447.034 917.587 468.954 924.176 491.095 929.898C515.516 936.212 540.062 941.95 565.293 943.875C596.081 946.228 626.132 942.44 655.406 932.509C675.846 925.585 696.253 918.489 717.912 916.273C719.097 916.153 719.25 915.646 719.058 914.641C718.44 911.462 717.867 908.275 717.272 905.088C717.623 901.428 717.028 897.743 717.651 894.1ZM716.28 711.254C710.451 710.72 704.69 709.738 698.913 708.791C695.652 708.257 692.437 706.725 689.001 707.757C685.168 706.413 681.721 704.177 677.814 702.974C652.905 695.307 629.42 684.621 608.034 669.593C602.664 665.819 597.402 661.869 593.285 656.643C592.452 652.483 587.247 650.031 584.531 650.604C580.483 651.462 576.401 652.183 572.386 653.181C552.342 658.175 532.168 662.329 511.468 663.339C509.443 663.18 507.419 662.982 505.389 662.874C492.757 662.198 480.532 659.424 468.489 655.735C444.301 648.329 422.114 636.815 401.152 622.791C391.139 616.095 381.562 608.825 372.553 600.824C370.976 599.427 370.369 599.712 369.78 601.613C368.85 604.614 367.767 607.577 366.667 610.522C364.944 615.147 363.056 619.864 364.11 624.835C365.658 632.15 367.738 639.352 369.592 646.599C369.474 648.154 369.564 649.708 369.122 651.251C368.765 652.506 368.884 653.67 370.296 654.566C380.264 660.887 388.638 668.94 395.771 678.321L396.015 678.412L396.276 678.401L396.236 678.378C396.225 679.519 397.104 680.205 397.67 681.006C404.889 691.243 409.515 702.548 411.715 714.869C412.288 718.081 411.018 722.189 413.439 724.335C415.843 726.457 419.659 726.996 422.868 728.182C453.934 739.662 486.197 745.224 519.105 747.347C532.957 748.237 546.854 748.566 560.734 749.015C572.868 749.407 585.008 749.146 597.153 749.486C613.352 749.94 629.54 750.189 645.682 751.83C658.57 753.141 671.368 754.973 684 757.828C700.5 761.556 716.382 767.079 731.56 774.581C732.257 774.927 733.074 775.778 733.811 775.034C734.565 774.274 733.618 773.509 733.307 772.804C731.208 768.026 730.857 763.021 730.988 757.874C731.101 753.401 732.507 749.111 732.507 744.651C733.023 744.378 733.323 743.941 733.482 743.391C734.678 739.152 736.532 735.185 738.432 731.235C741.811 724.658 746.229 718.796 751.501 712.871C748.967 712.871 746.971 712.871 744.981 712.871C735.387 712.859 725.856 711.605 716.28 711.254ZM383.66 842.545L383.632 842.516C382.544 837.511 384.295 833.737 388.582 831.064C390.203 830.201 391.813 829.333 393.441 828.482C399.054 825.536 403.148 821.133 405.92 815.469C409.277 808.614 410.853 801.361 410.927 793.722C411.063 778.775 408.03 764.996 396.877 754.083C396.888 753.742 396.763 753.498 396.401 753.436C396.247 753.231 396.089 753.033 395.936 752.828C394.478 748.834 394.099 744.872 396.191 740.951C396.571 740.241 397.093 739.555 396.95 738.664C398.368 736.138 399.167 733.403 399.632 730.566C401.39 719.766 399.389 709.449 394.802 699.734C382.118 672.868 360.317 657.472 331.967 650.576C324.114 648.67 316.068 648.113 308.045 647.483C304.983 643.579 305.635 639.8 308.431 636.088C312.4 631.656 315.581 626.634 318.937 621.765C333.503 600.625 347.837 579.321 360.277 556.831C367.353 544.046 375.665 531.929 381.086 518.241C385.753 506.454 390.577 494.724 395.244 482.931C398.821 473.88 401.645 464.584 403.919 455.112C404.401 453.115 404.288 452.57 401.934 453.16C358.395 464.176 318.648 483.448 281.402 508.265C273.282 513.673 266.376 520.176 260.366 527.855C256.318 533.019 251.952 537.973 247.257 542.598C242.267 544.011 238.049 541.707 233.757 539.772C229.096 536.77 224.333 535.675 218.754 537.496C206.156 541.611 197.134 549.709 190.897 561.195C182.341 576.955 178.678 594.536 172.351 611.123C171.88 612.015 171.347 612.878 170.95 613.797C167.622 621.532 164.526 629.358 161.782 637.32C160.313 641.587 158.136 645.582 157.002 649.981L157.008 649.969C156.39 650.043 156.395 650.548 156.31 650.991C155.76 651.939 155.278 652.926 154.654 653.822C149.5 661.279 144.488 668.759 140.224 676.84C134.463 687.759 129.35 698.893 124.711 710.323C115.378 733.312 111.971 757.249 112.486 781.873C112.98 805.254 117.499 827.875 125.794 849.729C134.894 873.715 148.934 894.195 169.17 910.165C188.607 925.499 211.156 932.853 235.435 935.705C253.176 937.784 270.924 937.99 288.687 936.195C309.854 934.047 330.328 929.107 349.601 919.967C364.988 912.665 378.308 902.742 387.357 887.846C395.925 873.732 396.282 855.507 384.119 843.158C383.972 842.959 383.813 842.749 383.66 842.545ZM741.868 874.995C741.482 875.003 741.369 875.252 741.358 875.587C736.38 879.788 732.405 884.633 730.67 891.119C727.874 901.557 729.467 911.496 733.856 921.127C740.246 935.146 750.356 946.134 762.416 955.395C782.902 971.124 805.967 981.631 830.762 988.392C855.608 995.17 880.815 999.061 906.65 996.278C929.85 993.769 950.098 984.44 967.651 969.14C982.276 956.4 993.168 940.833 1001.6 923.48C1011.05 904.005 1017.25 883.517 1019.94 862.023C1021.66 848.271 1022.27 834.464 1020.84 820.651C1018.47 797.854 1012.15 776.011 1004.33 754.57C1001.18 745.951 996.636 737.948 992.773 729.64C992.859 729.135 992.842 728.664 992.31 728.381C992.275 728.262 992.224 728.148 992.155 728.046C992.49 727.195 992.078 726.428 991.872 725.634C988.919 713.858 986.319 702.003 984.224 690.041C982.233 678.463 980.414 666.858 978.208 655.327C976.148 644.572 973.461 633.88 967.299 624.653C959.548 613.053 949.926 604.263 934.417 606.436C929.687 605.352 925.07 606.385 920.435 607.174C910.899 592.283 901.741 577.164 893.896 561.303C892.625 558.737 890.9 557.33 888.377 556.36C874.017 550.85 859.031 548.613 843.803 547.57C826.436 546.378 808.916 547.541 791.685 544.238C789.933 543.903 790.086 544.783 790.358 545.889C791.021 548.58 791.656 551.281 792.37 553.954C797.905 574.549 805.361 594.479 813.418 614.183C823.465 638.778 834.465 662.942 846.605 686.579C845.408 690.403 843.685 693.939 840.878 696.867C829.339 695.954 817.829 695.165 806.297 697.271C790.063 700.233 775.61 706.827 763.527 718.12C754.671 726.395 747.998 736.014 745.037 748.158C743.671 753.776 742.957 759.202 743.597 764.86C743.79 766.573 743.83 768.383 745.078 769.803C746.54 774.274 747.265 778.718 744.51 783.008C739.277 786.56 734.452 790.471 731.163 796.066C724.331 807.694 721.632 820.202 722.868 833.578C724.024 846.052 729.524 855.904 740.535 862.34C743.104 865.416 744.391 868.732 742.571 872.684C742.237 873.414 741.636 874.075 741.851 874.986L741.868 874.995ZM793.187 626.537C792.41 633.636 793.028 640.883 790.438 647.79C789.457 650.412 788.957 653.283 788.861 656.155C787.949 659.741 786.979 663.317 786.139 666.926C784.484 674.066 782.999 681.239 783.684 688.644C783.82 690.091 783.673 691.686 786.179 690.716C799.963 685.398 814.308 683.713 828.993 684.479C830.133 684.536 831.284 684.484 832.719 684.484C817.772 653.527 803.886 622.519 791.718 590.688C790.619 602.021 791.548 613.195 793.17 624.335C793.182 624.71 793.187 625.09 793.199 625.465C793.199 625.822 793.193 626.179 793.187 626.537ZM614.979 619.37L614.94 619.341C618.903 621.991 623.427 623.405 627.856 624.948C648.103 631.996 669.173 633.875 690.401 634.226C703.437 634.442 716.443 633.523 729.394 631.713C746.245 629.352 762.473 624.789 778.354 618.808C780.203 618.109 781.025 617.179 780.73 615.13C779.557 606.935 779.596 598.69 779.868 590.444C780.31 585.359 780.753 580.28 781.195 575.195C781.853 571.217 783.854 567.307 782.788 563.232C781.008 556.433 778.944 549.703 777.612 542.797C777.317 541.276 776.489 540.873 775.287 540.499C770.955 539.159 766.64 537.768 762.314 536.407C760.556 535.856 758.884 534.971 756.962 535.079C756.814 534.295 756.151 534.21 755.555 533.972C751.161 532.191 746.778 530.38 742.389 528.576C728.209 522.611 714.596 515.489 701.021 508.287C678.29 496.216 655.729 483.805 631.445 474.986C621.976 471.547 612.536 468.029 602.738 465.611C598.752 464.085 594.573 463.307 590.434 462.342C589.725 462.133 589.027 461.883 588.307 461.713C575.544 458.66 562.662 456.208 549.757 453.836C542.817 452.558 535.894 451.424 528.857 452.326C512.301 454.442 496.703 459.964 481.303 466.122C478.491 466.746 475.945 468.085 473.297 469.13C469.901 470.469 469.929 470.509 472.055 473.312C472.311 473.653 472.356 474.152 472.503 474.577C471.811 474.317 471.069 474.152 470.44 473.789C467.553 472.109 464.843 472.33 461.798 473.721C453.883 477.342 445.826 480.655 437.826 484.078C427.932 488.311 417.941 492.261 407.139 493.555C405.592 493.742 404.98 494.701 404.497 496.007C401.56 503.912 398.475 511.771 394.768 519.348C393.668 521.595 394.223 522.537 396.458 523.394C405.54 526.873 414.375 530.941 423.169 535.101C447.736 546.712 471.234 560.344 495.065 573.345C518.776 586.278 543.044 597.941 569.058 605.539C577.892 608.122 586.68 611.056 595.962 611.731C596.189 612.003 596.376 612.469 596.642 612.519C602.97 613.774 608.844 616.192 614.446 619.324C614.616 619.352 614.798 619.37 614.979 619.37ZM728.016 935.052C726.723 932.801 725.351 930.602 724.172 928.3C723.622 927.234 723.038 926.753 721.819 926.934C717.43 927.587 712.997 928.008 708.641 928.841C693.974 931.624 679.776 936.152 665.737 941.1C639.383 950.404 612.451 956.194 584.367 956.134C558.688 956.082 533.609 951.821 508.701 946.082C482.459 940.052 456.713 932.105 430.506 925.937C414.709 922.218 398.799 919.511 382.526 919.262C377.781 919.194 373.221 919.408 369.298 922.802C367.155 924.649 364.473 925.894 361.99 927.32C356.065 930.731 349.753 933.334 343.454 935.911C343.675 936.951 344.486 937.148 345.047 937.569C358.655 947.904 373.086 956.967 387.799 965.592C412.237 979.904 437.48 992.446 464.605 1000.93C487.693 1008.15 511.4 1011.83 535.44 1013.67C558.767 1015.45 581.917 1014.1 604.768 1009.08C627.516 1004.07 649.521 996.699 670.851 987.275C693.565 977.232 715.174 965.343 734.86 950.111C737.65 947.955 737.451 946.752 734.112 945.301C732.688 941.521 730.511 938.188 728.016 935.052ZM404.186 855.183C404.435 858.957 405.411 862.641 405.28 866.473C405.144 870.562 405.28 870.536 409.238 871.043C431.975 873.99 454.172 879.161 475.996 886.274C490.494 891.008 503.796 898.748 518.957 901.901C532.538 904.727 546.106 907.347 559.872 908.979C567.589 909.898 575.34 910.38 583.096 910.826C594.771 911.505 606.446 911.428 618.109 910.998C629.84 910.577 641.509 909.211 653.098 907.296C658.921 906.333 664.954 906.29 670.55 904.358C676.493 902.304 682.321 899.916 688.434 898.37C689.46 898.112 690.027 897.665 690.282 896.609C690.952 893.8 692.244 891.214 693.458 888.611C698.737 877.305 704.911 866.524 713.569 857.447C715.741 855.172 716.557 853.599 714.862 850.705C713.62 848.583 713.121 846.279 710.337 845.252C703.482 842.72 696.803 839.708 689.953 837.136C664.234 827.478 637.37 824.367 610.154 823.851C569.97 823.091 529.725 825.02 489.621 820.934C480.152 819.97 470.701 818.874 461.317 817.263C448.536 815.066 435.96 812.036 423.69 807.825C422.262 807.331 421.581 807.485 421.167 809.164C417.969 822.211 411.284 832.835 399.513 839.837C398.68 840.292 396.741 840.235 397.881 841.835C400.783 845.938 402.32 850.625 404.186 855.183ZM929.559 596.062C940.991 592.181 950.862 594.745 960.157 600.75C963.101 602.651 964.183 602.225 965.007 598.662C967.05 589.893 966.063 581.182 964.157 572.556C961.762 561.712 957.797 551.485 951.763 542.099C949.609 538.745 950.029 535.062 952.553 533.008C955.119 530.924 958.836 531.509 961.719 534.443C963.204 535.97 964.629 537.581 966.226 538.983C976.44 547.927 990.559 543.909 996.584 534.301C998.558 531.152 998.301 530.277 995.108 528.246C988.078 523.763 982.01 518.293 977.289 511.368C968.886 499.071 964.294 485.28 961.084 470.883C957.308 453.943 956.304 436.685 955.119 419.473C954.184 406.006 953.059 392.585 951.128 379.232C948.699 362.462 945.3 345.92 939.421 329.962C930.529 305.831 917.165 284.641 898.007 267.35C882.824 253.655 866.361 242.039 846.355 236.301C841.858 235.013 839.778 231.704 841.081 227.381C842.998 221.024 841.932 214.81 840.487 208.755C836.875 193.636 828.834 181.152 817.228 170.783C805.066 159.916 790.795 155.115 774.76 154.093C768.891 153.719 763.13 154.252 757.325 154.349C754.393 154.4 752.284 153.35 750.804 150.955C745.684 142.664 738.534 136.427 730.618 130.979C713.229 119.016 694.019 110.782 674.316 103.614C659.092 98.0754 643.442 94.0232 627.498 91.1006C617.242 89.2167 606.962 87.5991 596.551 86.7709C591.585 86.3732 586.606 86.027 581.645 85.5563C573.888 84.8243 566.086 84.8186 558.364 84.9151C549.881 85.0229 541.343 84.6994 532.855 85.6755C527.173 86.3337 521.407 86.3002 515.726 86.9694C504.284 88.3198 492.853 89.7785 481.484 91.7707C462.989 95.0163 444.732 99.2214 426.877 105.016C408.88 110.85 391.536 118.273 374.866 127.291C356.96 136.977 340.12 148.22 325.055 161.908C311.946 173.819 300.113 186.985 289.374 201.111C274.008 221.314 260.326 242.703 245.743 263.45C236.042 277.252 225.655 290.464 213.044 301.82C202.753 311.086 191.611 319.122 179.858 326.397C173.802 330.149 167.474 333.463 161.68 337.64C159.843 338.967 159.4 340.256 160.812 342.253C162.995 345.335 165.648 347.9 168.829 349.835C181.825 357.729 195.728 359.744 210.419 355.811C215.431 354.466 218.958 355.981 220.114 360.312C220.846 363.047 219.508 365.873 216.242 367.91C207.884 373.126 201.08 380.055 194.775 387.478C185.652 398.226 177.658 409.786 170.587 421.999C158.555 442.781 148.803 464.516 142.792 487.834C139.6 500.217 137.106 512.719 137.514 525.608C137.622 529.023 138.036 532.429 139.583 535.573C140.344 537.11 141.369 537.672 143.173 537.219C148.287 535.93 152.698 533.172 157.28 530.771C161.135 528.751 164.849 526.396 169.011 525.068C175.548 522.98 180.708 527.378 179.738 534.12C179.46 536.066 178.65 537.871 177.482 539.449C171.358 547.746 167.548 556.91 166.567 567.256C166.233 570.758 167.14 581.398 168.466 584.673C171.857 575.144 174.908 565.446 179.756 556.433C187.62 541.81 198.489 530.8 215.006 526.442C216.576 526.027 216.52 525.148 216.508 524.007C216.401 515.591 219.542 508.287 224.271 501.556C231.432 491.37 240.674 483.237 250.268 475.474C252.576 473.607 254.225 472.052 253.959 468.392C253.454 461.554 257.055 455.691 260.667 450.209C268.361 438.536 277.597 427.981 285.58 416.511C297.703 399.1 312.711 384.493 329.29 371.418C331.995 369.284 334.841 367.331 337.909 365.09C331.314 363.557 325.311 364.517 319.334 365.691C314.322 366.679 310.965 365.09 309.797 360.987C308.901 357.837 310.664 355.652 312.604 353.603C319.844 345.948 328.4 339.87 337.081 334.07C355.974 321.449 376.034 310.825 396.129 300.287C403.516 296.411 411.12 293 418.814 289.777C419.5 289.488 420.822 289.777 420.147 288.092C417.38 281.145 418.627 277.201 424.784 272.996C429.95 269.466 435.648 267.037 441.522 264.983C462.059 257.81 483.453 255.573 504.947 253.979C511.581 253.485 518.249 253.321 524.877 252.759C537.873 251.653 550.903 251.215 563.921 250.767C572.511 250.472 581.129 250.608 589.753 251.022C599.823 251.505 609.87 251.987 619.861 253.395C630.923 254.95 641.175 258.167 648.88 266.941C650.224 268.473 652.061 269.007 654.142 269.007C660.9 268.995 667.648 269.586 674.242 270.953C693.746 274.999 711.619 283.199 728.816 293.029C738.732 298.698 747.532 305.973 756.842 312.506C768.693 320.825 779.886 329.962 789.15 341.198C793.765 346.793 797.224 352.86 794.298 360.539C793.811 361.821 794.729 362.451 795.472 363.093C800.422 367.411 805.361 371.741 810.373 375.985C818.697 383.034 827.463 389.56 834.72 397.835C846.763 411.568 854.553 427.175 856.572 445.511C856.759 447.184 856.113 449.505 858.559 450.538C864.078 452.859 868.953 456.225 873.382 460.22C880.266 466.445 886.291 473.295 888.36 482.727C889.089 486.029 889.364 489.469 887.45 492.437C886.326 494.179 886.995 494.435 888.42 495.042C896.428 498.492 904.299 502.232 911.534 507.135C921.559 513.922 930.228 521.998 935.747 533.013C939.352 540.203 941.515 547.762 942.322 555.804C943.412 566.546 941.772 576.614 936.339 586.017C934.434 589.36 932.185 592.476 929.559 596.062ZM724.047 784.768C724.143 783.445 723.101 783.377 722.409 783.099C717.589 781.181 712.77 779.274 707.916 777.447C680.394 767.09 651.647 763.344 622.514 762.022C607.058 761.318 591.573 761.239 576.105 760.853C567.119 760.626 558.132 760.711 549.139 760.433C531.176 759.877 513.254 759.02 495.393 756.954C479.2 755.082 463.182 752.279 447.397 748.209C436 745.269 424.847 741.541 413.881 737.279C411.687 736.422 410.649 736.796 410.207 739.135C409.787 741.359 408.75 743.374 407.219 745.025C406.204 746.115 406.346 746.768 407.298 747.784C409.963 750.633 412.492 753.651 414.284 757.102C415.52 759.479 417.317 760.569 419.647 761.482C440.643 769.723 462.507 774.302 484.824 776.891C503.501 779.053 522.252 780.165 541.065 780.38C563.966 780.641 586.867 780.057 609.762 780.715C624.023 781.129 638.249 781.647 652.413 783.57C673.465 786.436 693.713 792.06 713.076 800.822C714.657 801.537 715.242 801.384 715.831 799.727C717.583 794.812 720.033 790.238 723.168 786.05C723.503 785.607 723.798 785.142 724.047 784.768ZM563.501 811.485C586.851 811.559 610.199 811.366 633.514 813.103C644.883 813.948 656.138 815.486 667.251 817.955C681.381 821.093 695.125 825.457 708.398 831.285C709.056 831.575 710.569 833.232 710.462 830.604C710.253 825.503 710.615 820.418 711.46 815.395C711.743 813.704 711.278 813.04 709.866 812.49C704.259 810.31 698.702 807.984 693.067 805.878C667.41 796.276 640.636 793.189 613.499 792.673C573.31 791.906 533.053 793.847 492.944 789.75C481.445 788.575 469.963 787.213 458.617 784.972C446.626 782.599 434.781 779.643 423.333 775.273C421.978 774.757 420.968 774.479 421.468 776.63C422.687 781.891 423.157 787.242 422.948 792.627C422.874 794.563 423.588 795.351 425.374 795.959C441.466 801.429 457.982 804.885 474.805 807.156C493.357 809.658 511.984 811.02 530.678 811.44C541.615 811.69 552.564 811.485 563.501 811.485ZM474.783 645.253C494.316 651.15 514.133 652.864 534.335 650.905C550.614 649.328 566.325 645.202 581.974 640.719C583.369 640.321 584.214 639.686 584.843 638.449C587.038 634.141 588.608 629.618 589.747 624.925C590.133 623.348 589.73 622.911 588.132 622.61C576.395 620.402 564.959 617.088 553.692 613.15C541.025 608.723 528.722 603.429 516.661 597.578C514.79 596.67 514.24 596.914 514.059 599.065C513.055 611.01 507.504 620.953 500.099 630.021C494.14 637.32 486.451 641.876 477.368 644.18C476.517 644.396 475.492 644.249 474.783 645.253ZM697.211 695.789C694.127 692.095 691.655 688.65 690.004 684.695C684.992 672.703 684.81 660.513 688.672 648.215C689.222 646.456 689.035 646.025 687.147 646.008C678.426 645.94 669.728 645.389 661.076 644.334C646.81 642.592 632.76 639.873 619.333 634.5C613.317 632.093 607.614 629.068 601.762 625.85C600.617 631.378 599.098 636.588 596.767 641.542C596.331 642.472 596.331 643.42 597.221 644.328C601.444 648.629 605.567 653.028 610.404 656.677C630.951 672.193 653.977 682.753 678.307 690.71C684.34 692.69 690.436 694.427 697.211 695.789ZM401.872 608.893C395.743 584.15 399.785 562.943 421.586 547.206C411.012 541.98 400.494 537.275 389.801 532.945C388.27 532.326 387.896 533.302 387.346 534.307C384.811 538.938 382.35 543.62 379.64 548.143C378.155 550.628 377.474 553.136 377.503 556.014C377.588 565.684 376.833 575.292 374.673 584.747C374.355 586.131 374.838 587.005 375.841 587.874C379.77 591.267 383.558 594.831 387.584 598.105C392.143 601.811 396.701 605.557 401.872 608.893ZM500.19 447.36C490.625 446.293 481.484 446.06 472.35 445.794C454.416 445.278 436.618 446.696 418.922 449.557C417.419 449.801 416.677 450.476 416.427 451.957C414.851 461.378 412.617 470.639 409.793 479.759C409.158 481.808 409.872 481.933 411.568 481.512C418.066 479.918 424.348 477.699 430.528 475.162C446.365 468.658 461.809 461.208 477.935 455.402C485.215 452.785 492.478 450.147 500.19 447.36ZM357.158 647.063C357.618 645.929 357.301 645.032 357.068 644.147C356.121 640.475 355.327 636.752 354.159 633.154C351.37 624.568 351.925 616.214 355.219 607.878C357.805 601.334 360.09 594.677 362.035 587.907C363.492 582.822 364.677 577.67 365.051 572.347C351.574 594.298 337.342 615.687 322.441 637.166C334.632 639.005 346.227 641.888 357.158 647.063ZM721.473 664.849C718.377 665.445 715.423 666.296 713.303 668.975C706.691 677.334 711.471 689.569 722.283 691.749C725.68 692.43 729.207 692.895 732.206 690.704C737.814 686.618 739.639 675.603 735.779 669.781C735.041 668.668 734.763 667.97 735.58 666.671C737.559 663.533 736.913 659.929 734.236 657.307C731.492 654.628 726.769 654.112 723.429 656.127C720.793 657.721 720.254 659.855 721.405 664.191C721.45 664.367 721.445 664.554 721.473 664.849ZM431.838 589.105C431.889 590.217 431.872 591.335 432.008 592.436C432.904 599.853 438.387 604.433 445.129 603.059C450.095 602.049 454.598 599.847 458.051 595.96C460.931 592.714 462.082 588.577 460.256 584.854C457.387 579.009 453.18 573.935 446.909 571.297C442.708 569.526 438.183 570.99 436.096 574.912C433.755 579.316 431.719 583.912 431.838 589.105ZM749.937 682.391C755.204 682.374 758.526 678.809 758.464 673.248C758.402 667.59 754.886 663.481 750.044 663.402C745.616 663.334 740.961 668.322 740.887 673.219C740.802 678.43 744.732 682.407 749.937 682.391ZM465.41 611.487C465.41 606.658 462.087 602.515 458.186 602.497C453.112 602.469 448.457 606.828 448.469 611.595C448.48 616.027 452.534 619.687 457.331 619.596C461.923 619.506 465.405 616.016 465.41 611.487ZM780.225 647.716C781.74 643.341 782.159 639.555 783.169 635.935C783.684 634.091 783.48 632.507 783.084 630.787C782.862 629.823 782.664 629.306 781.461 629.846C778.939 630.981 776.342 631.957 773.756 632.956C772.81 633.318 772.378 633.636 773.172 634.67C776.063 638.431 778.241 642.609 780.225 647.716ZM761.775 700.153C766.391 701.067 769.486 698.785 772.684 696.794C773.269 696.43 773.711 696.095 773.484 695.267C772.939 693.269 772.464 691.255 771.857 688.837C768.783 693.054 765.778 696.856 761.775 700.153Z" fill="#D1D1D1"/>
<path d="M883.683 505.24C874.233 501.976 864.688 499.06 854.934 496.83C840.141 493.442 825.15 491.081 810.312 487.943C792.025 484.078 773.91 479.668 756.622 472.336C742.623 466.4 729.327 459.091 716.036 451.759C682.43 433.212 648.115 416.261 611.158 405.297C593.258 399.991 575.051 396.132 556.528 393.646C541.74 391.66 526.93 390.656 512.019 390.207C501.994 389.907 492.003 390.253 482.029 390.622C467.906 391.144 453.895 393.158 439.964 395.73C412.788 400.746 386.559 408.833 361.06 419.399C342.02 427.288 323.922 436.918 306.572 448.081C295.175 455.413 285.003 464.352 273.861 472.001C269.433 475.038 265.101 478.221 261.115 481.842C260.758 482.165 260.361 482.375 259.856 482.262C259.913 482 259.891 481.665 260.044 481.484C265.033 475.616 267.21 468.557 268.662 461.184C274.667 457.757 279.203 452.497 284.578 448.286C292.408 442.151 300.601 436.646 309.361 431.97C328.412 421.8 347.668 412.051 367.881 404.384C389.41 396.217 411.393 389.617 434.056 385.305C446.666 382.904 459.333 380.963 472.101 379.936C486.407 378.79 500.769 378.233 515.126 378.801C527.401 379.289 539.682 379.97 551.873 381.57C566.768 383.528 581.556 386.093 596.195 389.543C621.137 395.429 644.962 404.406 668.295 414.837C690.55 424.785 711.96 436.391 733.256 448.201C757.416 461.599 783.039 470.844 810.147 476.218C828.171 479.788 846.321 482.784 864.147 487.301C868.714 488.459 873.28 489.616 877.709 491.245C877.889 496.682 880.661 501.012 883.683 505.24Z" fill="#D1D1D1"/>
<path d="M369.594 646.599C374.872 650.645 379.827 655.094 385.418 658.754C400.302 668.493 416.666 674.695 433.681 679.445C446.427 683.003 459.429 685.148 472.538 686.624C478.951 687.345 485.442 687.81 491.889 687.731C511.836 687.492 531.274 684.456 549.457 675.717C556.488 672.34 562.968 668.056 568.86 662.914C569.28 662.551 569.671 662.148 570.028 661.723C570.187 661.529 570.22 661.234 570.47 660.536C568.667 661.24 567.159 661.784 565.69 662.403C551.374 668.424 536.382 672.006 521.107 674.349C510.408 675.989 499.573 676.744 488.749 676.069C466.528 674.684 445.004 670.308 424.972 660.11C421.514 658.352 418.072 656.484 415.3 653.675C412.685 651.025 412.294 648.056 414.165 645.713C415.962 643.46 419.206 643.028 422.234 644.896C437.752 654.475 454.774 659.833 472.64 662.642C482.324 664.162 492.133 664.906 501.931 664.282C505.078 664.077 508.383 664.588 511.457 663.328C532.158 662.318 552.331 658.164 572.376 653.17C576.39 652.171 580.472 651.451 584.521 650.593C587.236 650.02 592.447 652.472 593.275 656.632C591.795 655.054 590.911 655.321 589.663 657.182C582.043 668.561 571.808 677.056 559.907 683.645C545.136 691.817 529.209 696.34 512.556 698.326C503.842 699.364 495.048 699.937 486.26 699.467C457.087 697.906 428.827 692.129 401.793 680.824C399.922 680.041 398.26 678.776 396.225 678.367L396.265 678.389C396.134 678.123 395.982 678.015 395.76 678.31C388.634 668.929 380.253 660.876 370.285 654.554C368.868 653.658 368.754 652.494 369.111 651.24C369.565 649.708 369.474 648.154 369.594 646.599Z" fill="#D1D1D1"/>
<path d="M595.951 611.72C599.058 610.885 601.014 606.515 600.379 602.401C599.722 598.139 597.698 594.564 595.322 591.114C588.325 580.944 583.364 569.577 576.724 559.22C568.991 547.144 559.102 536.889 548.459 527.315C533.082 513.491 516.747 500.944 499.306 489.855C491.193 484.696 483.118 479.435 474.228 475.628C473.989 475.526 473.819 475.27 473.621 475.082C473.371 474.612 472.935 474.538 472.47 474.527L472.493 474.566C472.351 474.141 472.305 473.641 472.044 473.301C469.918 470.498 469.89 470.463 473.286 469.119C475.94 468.068 478.486 466.735 481.293 466.11C487.002 469.339 492.808 472.416 498.41 475.826C512.88 484.639 526.755 494.315 539.954 504.962C548.959 512.226 557.86 519.62 566.002 527.832C577.195 539.125 587.032 551.457 594.125 565.832C597.981 573.646 602.987 580.797 607.575 588.191C610.676 593.185 612.667 598.497 612.19 604.467C612.008 606.765 612.547 607.52 615.104 607.758C626.807 608.871 638.522 609.489 650.264 609.263C672.598 608.825 694.564 605.602 716.07 599.586C736.136 593.974 755.766 587.112 774.539 577.953C776.694 576.903 778.968 576.104 781.185 575.184C780.742 580.263 780.3 585.348 779.858 590.433C779.745 588.362 778.712 588.935 777.482 589.502C757.126 598.945 735.995 606.221 714.312 611.89C703.426 614.738 692.387 616.839 681.216 618.325C674.906 619.165 668.578 619.681 662.256 620.352C658.225 620.777 654.126 621.077 650.088 620.885C638.374 620.323 626.631 620.437 614.94 619.335L614.98 619.364C614.832 619.006 614.662 618.899 614.441 619.313C608.839 616.18 602.959 613.762 596.638 612.508C596.365 612.458 596.178 611.992 595.951 611.72Z" fill="#D1D1D1"/>
<path d="M734.112 945.292C732.292 948.101 729.293 949.493 726.695 951.314C704.662 966.769 680.389 977.516 654.715 985.273C640.103 989.697 625.197 992.747 610.075 994.637C599.716 995.925 589.306 997.034 578.845 996.999C571.627 996.965 564.426 997.369 557.191 997.18C543.032 996.793 528.943 995.848 514.858 994.336C496.839 992.412 479.075 989.173 461.544 984.706C435.461 978.066 410.768 968.135 388.401 952.903C385.571 950.979 382.691 949.081 380.31 946.589C378.688 944.897 377.882 942.835 378.608 940.464C379.204 938.523 380.627 937.406 382.6 937.002C384.387 936.65 385.871 937.372 387.244 938.394C405.989 952.225 426.866 961.795 448.922 968.874C467.264 974.758 486.049 978.761 505.141 981.399C523.228 983.907 541.372 985.153 559.64 985.436C587.162 985.857 614.373 983.718 641.067 976.828C668.402 969.776 694.161 958.968 717.72 943.213C720.492 941.366 723.203 939.416 725.862 937.406C726.695 936.779 727.92 936.384 728.022 935.043C730.511 938.188 732.689 941.512 734.112 945.292Z" fill="#D1D1D1"/>
<path d="M399.508 839.849C404.248 842.994 409.567 844.951 414.75 847.153C428.363 852.948 441.982 858.741 455.834 863.947C474.369 870.923 493.273 876.661 512.568 881.111C524.617 883.895 536.796 885.802 549.066 887.331C564.744 889.29 580.477 889.35 596.177 888.757C612.388 888.147 628.497 885.991 644.39 882.529C657.391 879.694 670.336 876.687 682.719 871.644C686.013 870.296 689.16 871.438 690.408 874.075C691.672 876.756 690.249 879.874 686.926 881.592C676.562 886.97 665.312 889.668 654.04 892.21C641.901 894.951 629.659 897.064 617.27 898.49C601.706 900.286 586.108 901.033 570.487 900.483C558.336 900.054 546.237 898.714 534.182 896.867C510.544 893.25 487.603 886.979 464.997 879.385C447.976 873.672 431.447 866.67 414.965 859.583C411.404 858.049 407.957 856.216 404.18 855.183C402.315 850.626 400.778 845.938 397.87 841.847C396.735 840.246 398.68 840.303 399.508 839.849Z" fill="#D1D1D1"/>
<path d="M474.783 645.253C475.486 644.249 476.518 644.396 477.368 644.18C486.452 641.876 494.141 637.325 500.1 630.021C507.505 620.953 513.055 611.01 514.06 599.065C514.241 596.908 514.791 596.67 516.662 597.578C528.727 603.429 541.026 608.717 553.693 613.15C564.959 617.088 576.401 620.402 588.133 622.61C589.731 622.911 590.133 623.348 589.748 624.925C588.603 629.618 587.038 634.141 584.844 638.449C584.214 639.686 583.369 640.316 581.974 640.719C566.325 645.202 550.614 649.322 534.335 650.905C514.138 652.869 494.317 651.149 474.783 645.253Z" fill="#D1D1D1"/>
<path d="M697.212 695.789C690.437 694.427 684.341 692.691 678.303 690.716C653.972 682.759 630.952 672.198 610.398 656.683C605.562 653.034 601.44 648.636 597.216 644.334C596.325 643.426 596.326 642.473 596.762 641.547C599.087 636.593 600.612 631.384 601.758 625.856C607.609 629.074 613.318 632.098 619.329 634.505C632.756 639.879 646.805 642.597 661.071 644.339C669.724 645.395 678.422 645.946 687.142 646.014C689.03 646.031 689.223 646.462 688.668 648.221C684.806 660.519 684.987 672.709 690 684.7C691.655 688.65 694.133 692.095 697.212 695.789Z" fill="#D1D1D1"/>
<path d="M401.872 608.893C396.702 605.563 392.142 601.817 387.584 598.1C383.558 594.825 379.771 591.262 375.841 587.868C374.838 586.999 374.355 586.125 374.673 584.741C376.828 575.287 377.588 565.684 377.503 556.008C377.48 553.125 378.154 550.617 379.64 548.138C382.351 543.608 384.811 538.933 387.346 534.301C387.896 533.297 388.27 532.321 389.801 532.94C400.494 537.269 411.012 541.974 421.587 547.201C399.78 562.944 395.743 584.15 401.872 608.893Z" fill="#D1D1D1"/>
<path d="M756.951 535.073C748.86 539.176 740.701 543.137 732.257 546.485C726.134 548.914 719.881 548.171 713.654 547.246C702.785 545.634 691.927 544.238 680.899 544.017C672.576 543.852 664.258 543.846 656.03 544.806C643.913 546.213 631.774 547.995 621.347 555.174C618.614 557.052 616.137 559.305 613.579 561.433C610.784 563.754 607.517 563.846 605.386 561.598C603.124 559.209 603.283 556.252 605.981 553.465C613.017 546.202 621.347 540.981 631.065 538.16C641.289 535.192 651.721 533.558 662.381 532.866C670.359 532.349 678.319 532.264 686.257 532.581C696.106 532.973 705.949 533.949 715.662 535.737C722.114 536.923 728.164 536.248 733.908 533.081C736.709 531.538 740.077 531.061 742.379 528.581C746.767 530.386 751.151 532.196 755.544 533.977C756.14 534.205 756.803 534.29 756.951 535.073Z" fill="#D1D1D1"/>
<path d="M395.93 752.823C391.898 750.797 388.599 747.659 384.472 745.695C373.574 740.496 362.023 737.778 350.219 735.775C339.514 733.954 328.712 733.25 317.894 733.307C303.656 733.38 289.391 733.613 275.624 738.04C273.333 738.777 271.122 739.759 268.82 740.429C265.333 741.445 262.754 740.219 261.562 737.182C260.389 734.181 261.358 731.831 264.749 730.219C272.421 726.576 280.574 724.556 288.96 723.455C301.842 721.764 314.804 721.241 327.759 721.951C347.769 723.052 367.501 725.775 386.228 733.545C389.897 735.065 393.09 737.557 396.951 738.652C397.093 739.544 396.571 740.23 396.191 740.94C394.093 744.867 394.473 748.834 395.93 752.823Z" fill="#D1D1D1"/>
<path d="M745.089 769.825C752.947 766.494 761.27 765.245 769.679 764.689C797.355 762.85 824.23 767.3 850.567 775.506C859.168 778.185 867.331 781.902 874.798 787.015C876.807 788.383 878.721 789.864 878.85 792.644C878.935 794.625 878.489 796.39 876.687 797.44C874.67 798.609 872.567 798.45 870.593 797.315C866.43 794.914 862.37 792.327 857.921 790.431C844.375 784.665 830.189 781.215 815.759 778.718C803.149 776.534 790.431 775.461 777.623 775.92C766.555 776.318 755.669 777.697 745.593 782.799C745.281 782.958 744.884 782.963 744.527 783.037C747.277 778.735 746.546 774.297 745.089 769.825Z" fill="#D1D1D1"/>
<path d="M658.39 1005.34C663.209 1003.49 667.728 1000.86 672.837 999.774C674.617 1002.33 677.202 1001.78 679.567 1001.26C685.141 1000.02 690.504 1000.36 695.789 1002.55C697.127 1003.11 698.607 1003.45 700.052 1003.61C704.441 1004.1 706.743 1001.84 706.59 997.343C708.931 997.523 710.887 998.718 712.906 999.757C703.233 1009.05 692.279 1013.18 679.005 1008.36C671.532 1005.65 667.495 1007.74 665.125 1015.41C663.895 1019.4 661.831 1022.83 658.662 1025.57C653.02 1030.45 646.635 1033.93 639.264 1035.23C632.438 1036.43 626.297 1034.25 620.53 1030.73C613.579 1026.47 610.33 1027.14 605.528 1033.62C600.816 1039.99 593.864 1042.53 586.59 1044.28C574.972 1047.09 564.613 1044.88 555.876 1036.26C552.519 1032.95 548.907 1032.65 544.655 1034.82C541.372 1036.49 538.435 1038.84 534.857 1039.95C533.814 1038.3 535.526 1036.95 535.334 1035.39C541.406 1034.37 543.889 1031.9 544.433 1026.34C548.045 1026.35 551.657 1026.15 555.252 1026.62C555.91 1029.42 558.155 1029.95 560.519 1030.25C562.073 1030.45 563.66 1030.45 565.209 1030.7C572.778 1031.89 579.395 1035.47 585.807 1039.37C587.974 1040.68 589.856 1040.48 591.761 1039.64C592.952 1039.12 593.808 1037.85 594.817 1036.9C602.63 1037.43 607.541 1030.67 604.564 1023.54C604.286 1022.86 604.077 1022.16 603.833 1021.47C608.771 1020.53 613.551 1018.84 618.598 1018.43C619.419 1020.32 621.126 1020.32 622.787 1020.37C624.999 1020.43 627.164 1019.92 629.41 1020.04C635.023 1020.36 639.86 1022.82 644.815 1025.07C648.886 1026.93 651.715 1025.64 653.338 1021.44C654.171 1021.42 654.998 1021.43 655.832 1021.41C659.637 1021.3 662.148 1019.6 663.368 1016.39C664.689 1012.92 663.714 1010.07 661.066 1007.66C660.198 1006.87 659.285 1006.11 658.39 1005.34Z" fill="#D1D1D1"/>
<path d="M247.257 542.603C244.926 546.304 241.723 549.283 238.871 552.535C228.625 564.237 218.397 575.956 208.162 587.669C193.471 604.479 179.569 621.918 165.654 639.352C163.17 642.461 160.835 645.69 158.431 648.862C158.057 649.356 157.841 650.071 157.008 649.986C158.142 645.594 160.319 641.593 161.788 637.325C164.532 629.357 167.622 621.532 170.956 613.802C171.353 612.883 171.886 612.02 172.356 611.129C173.099 610.977 173.666 610.635 174.188 610.012C181.57 601.153 188.913 592.254 196.426 583.504C206.41 571.881 216.599 560.429 226.562 548.783C229.051 545.873 231.982 543.273 233.762 539.778C238.049 541.712 242.262 544.016 247.257 542.603Z" fill="#D1D1D1"/>
<path d="M992.156 728.057C989.606 724.862 987.976 721.117 986.053 717.564C967.556 683.383 947.232 650.298 926.606 617.383C924.495 614.018 922.495 610.585 920.435 607.185C925.07 606.396 929.679 605.358 934.417 606.448C933.636 607.798 934.64 608.774 935.224 609.727C950.141 634.056 965.445 658.152 979.598 682.941C980.989 685.375 981.899 688.196 984.225 690.046C986.328 702.008 988.928 713.864 991.881 725.64C992.087 726.439 992.499 727.2 992.156 728.057Z" fill="#D1D1D1"/>
<path d="M740.547 862.358C753.276 856.335 766.725 855.126 780.611 855.795C800.292 856.744 819.111 861.627 837.793 867.366C839.647 867.933 841.586 868.26 843.412 868.895C846.65 870.038 848.146 872.503 847.631 875.519C847.154 878.259 845.204 879.616 841.586 879.522C836.427 879.393 831.647 877.503 826.799 876.051C814.047 872.22 801.131 869.015 787.869 867.959C776.938 867.091 765.909 866.619 755.068 869.436C750.373 870.656 746.201 873.01 741.863 875.012C741.653 874.101 742.248 873.44 742.583 872.709C744.402 868.758 743.116 865.442 740.547 862.358Z" fill="#D1D1D1"/>
<path d="M383.633 842.511C377.186 837.431 370.121 833.539 362.217 831.178C353.57 828.596 344.702 827.347 335.755 826.558C328.175 825.889 320.577 825.747 312.984 826.093C304.853 826.468 296.74 827.159 288.62 827.664C287.521 827.733 286.381 827.67 285.309 827.444C282.185 826.773 280.025 824.169 280.167 821.422C280.302 818.868 282.763 816.649 286.001 816.514C292.476 816.241 298.906 815.401 305.364 814.959C320.934 813.897 336.447 814.345 351.875 816.95C364.349 819.056 376.103 822.983 386.507 830.4C387.165 830.871 387.868 830.917 388.583 831.064C384.296 833.737 382.544 837.511 383.633 842.511Z" fill="#D1D1D1"/>
<path d="M420.209 996.175C424.116 997.919 428.017 999.654 431.924 1001.4C431.884 1005.76 432.757 1007.13 436.76 1008.79C439.51 1009.92 442.084 1011.35 444.528 1013.04C448.468 1015.75 451.389 1019.49 454.507 1023.03C455.88 1024.58 457.478 1026.18 459.599 1025.54C462.179 1024.76 464.481 1023.25 464.322 1019.93C465.654 1019.59 466.601 1020.55 467.684 1020.98C472.856 1023.05 476.587 1021.99 479.75 1017.48C484.065 1018.23 488.391 1018.95 492.564 1020.34C493.023 1023.37 495.377 1024.31 497.849 1024.9C508.14 1027.38 517.099 1032.43 525.388 1038.84C526.709 1039.86 528.059 1040.86 529.845 1040.89C529.652 1041.29 529.465 1041.69 529.272 1042.07C515.392 1046.39 503.36 1042.96 492.82 1033.33C491.589 1032.21 490.41 1031.03 489.236 1029.83C484.287 1024.83 481.23 1024.42 475.208 1027.83C464.039 1034.15 452.829 1033.7 441.925 1027.39C434.129 1022.88 428.278 1016.39 424.576 1008.04C422.432 1003.2 419.75 1001.91 414.619 1002.87C416.847 1000.94 419.478 999.353 420.209 996.175Z" fill="#D1D1D1"/>
<path d="M602.727 465.6C603.47 471.406 603.272 477.239 603.334 483.067C603.418 491.279 601.451 499.184 599.739 507.113C598.469 512.975 597.148 518.837 596.7 524.813C596.229 531.124 597.652 537.11 600.929 542.609C603.05 546.156 602.654 549.635 600.085 551.32C597.165 553.233 594.132 552.428 591.852 548.977C585.944 540.055 584.493 530.233 585.864 519.774C587.152 509.966 589.964 500.467 591.449 490.711C592.782 481.966 592.396 473.21 590.786 464.51C590.65 463.784 590.548 463.052 590.429 462.325C594.556 463.296 598.741 464.073 602.727 465.6Z" fill="#D1D1D1"/>
<path d="M721.473 664.849C721.445 664.554 721.45 664.367 721.405 664.197C720.254 659.861 720.793 657.721 723.429 656.132C726.769 654.117 731.497 654.628 734.236 657.312C736.918 659.934 737.559 663.538 735.58 666.676C734.763 667.976 735.041 668.674 735.779 669.786C739.64 675.615 737.814 686.623 732.206 690.71C729.207 692.901 725.681 692.435 722.284 691.754C711.471 689.575 706.691 677.34 713.303 668.98C715.423 666.296 718.377 665.445 721.473 664.849Z" fill="#D1D1D1"/>
<path d="M846.61 686.596C856.363 687.912 865.718 690.761 874.979 693.956C884.97 697.406 894.737 701.356 903.389 707.627C904.754 708.615 906.058 709.636 907.105 710.947C908.693 712.956 908.711 715.788 907.174 717.637C905.475 719.686 903.252 720.22 900.943 719.017C898.17 717.565 895.596 715.72 892.875 714.153C881.313 707.502 868.73 703.496 855.926 700.165C850.965 698.876 845.907 697.968 840.895 696.89C843.69 693.95 845.414 690.421 846.61 686.596Z" fill="#D1D1D1"/>
<path d="M308.045 647.478C304.167 647.575 300.284 647.551 296.411 647.79C281.261 648.738 266.218 650.214 252.15 656.638C248.862 658.141 245.426 656.978 243.98 654.129C242.659 651.536 243.963 648.335 247.246 646.558C254.736 642.507 262.878 640.401 271.185 638.949C283.5 636.798 295.923 635.804 308.431 636.083C305.63 639.794 304.978 643.574 308.045 647.478Z" fill="#D1D1D1"/>
<path d="M431.838 589.105C431.719 583.912 433.755 579.316 436.091 574.917C438.178 570.99 442.702 569.526 446.903 571.302C453.174 573.946 457.376 579.014 460.251 584.86C462.076 588.582 460.925 592.72 458.045 595.966C454.598 599.853 450.09 602.055 445.123 603.065C438.387 604.438 432.898 599.853 432.003 592.441C431.872 591.329 431.889 590.211 431.838 589.105Z" fill="#D1D1D1"/>
<path d="M366.236 966.597C369.207 968.083 372.161 969.604 374.656 971.846C374.287 974.174 375.813 975.463 377.412 976.571C384.295 981.339 389.03 987.601 391.201 995.762C392.035 998.898 394.053 1000.73 396.491 1000.65C399.497 1000.56 401.169 998.735 401.906 995.934C402.706 996.286 403.103 997.025 403.607 997.678C405.932 1000.71 408.636 1003.06 412.838 1002.59C413.303 1002.54 413.757 1002.61 414.046 1003.05C397.614 1008.41 382.821 1005.15 371.306 990.702C366.894 985.17 363.004 979.328 360.702 972.55C360.379 971.597 359.823 970.721 359.376 969.81C359.982 968.805 360.986 969.243 361.842 969.106C363.611 968.813 365.534 968.753 366.236 966.597Z" fill="#D1D1D1"/>
<path d="M732.518 744.651C728.504 739.725 724.546 734.771 720.067 730.213C711.67 721.661 701.725 715.357 691.479 709.415C690.623 708.915 689.517 708.768 689.001 707.757C692.443 706.725 695.658 708.257 698.912 708.79C704.684 709.738 710.445 710.72 716.274 711.254C722.84 716.486 729.298 721.825 734.775 728.262C735.745 729.402 736.317 731.377 738.432 731.23C736.533 735.179 734.679 739.152 733.482 743.386C733.329 743.941 733.029 744.379 732.518 744.651Z" fill="#D1D1D1"/>
<path d="M793.188 626.537C794.009 626.679 794.05 627.292 794.185 627.967C796.85 640.889 801.591 652.903 809.766 663.402C810.901 664.855 812.182 666.205 813.208 667.732C814.683 669.928 814.83 672.238 813.084 674.406C811.496 676.375 808.899 676.749 806.291 675.575C802.623 673.929 800.706 670.586 798.506 667.55C796.992 665.456 795.637 663.243 794.322 661.018C793.006 658.794 791.833 656.49 790.608 654.237C789.417 654.378 790.035 656.064 788.861 656.166C788.957 653.295 789.457 650.423 790.438 647.801C793.028 640.878 792.41 633.631 793.188 626.537Z" fill="#D1D1D1"/>
<path d="M355.096 967.061C351.127 966.7 347.203 967.826 343.183 967.087C330.29 964.707 321.909 956.958 316.563 945.369C316.063 944.296 316.352 943.926 317.396 943.651C321.433 942.612 325.47 941.572 329.478 940.421C331.265 939.906 331.384 941.426 332.109 942.251C330.981 944.906 331.633 947.182 333.731 949.012C337.213 952.036 339.764 955.73 341.998 959.724C344.765 964.664 346.471 965.059 351.563 962.413C352.833 963.9 354.369 965.171 355.096 967.061Z" fill="#D1D1D1"/>
<path d="M541.581 917.561C542.806 920.276 545.794 920.946 547.734 922.87C548.992 924.108 550.313 925.216 551.045 926.882C552.088 929.245 551.527 931.238 549.627 932.853C547.767 934.434 545.823 934.932 543.663 933.222C535.747 926.985 527.304 921.556 518.431 916.78C515.012 914.941 511.519 913.24 508.083 911.436C507.239 910.981 506.036 910.895 505.866 909.598C516.469 913.034 527.52 914.469 538.355 916.883C539.427 917.123 540.504 917.338 541.581 917.561Z" fill="#D1D1D1"/>
<path d="M529.844 1040.89C528.058 1040.87 526.709 1039.86 525.388 1038.84C517.103 1032.43 508.139 1027.37 497.848 1024.9C495.376 1024.31 493.023 1023.37 492.563 1020.34C497.757 1021.1 502.957 1021.86 508.15 1022.62C513.265 1023.36 518.363 1024.26 523.55 1024.35C523.976 1024.35 524.395 1024.62 524.821 1024.77C525.342 1025.97 526.607 1026.28 527.514 1027.01C530.519 1029.44 534.272 1031.16 535.344 1035.38C535.543 1036.94 533.824 1038.3 534.868 1039.95V1039.89C534.459 1039.16 533.95 1039.6 533.467 1039.78C532.259 1040.15 531.052 1040.52 529.844 1040.89Z" fill="#D1D1D1"/>
<path d="M594.828 1036.91C593.819 1037.85 592.963 1039.13 591.773 1039.65C589.873 1040.49 587.99 1040.68 585.819 1039.37C579.406 1035.48 572.79 1031.89 565.22 1030.7C563.672 1030.46 562.09 1030.46 560.531 1030.26C558.166 1029.96 555.921 1029.43 555.264 1026.63C564.398 1025.95 573.571 1025.86 582.683 1024.81C585.201 1026.96 588.393 1027.98 591.092 1029.84C593.592 1031.56 595.22 1033.68 594.828 1036.91Z" fill="#D1D1D1"/>
<path d="M672.309 915.122C672.202 916.453 670.994 916.556 670.149 916.986C661.593 921.324 653.218 925.972 645.223 931.289C642.945 932.801 640.54 933.566 638.056 931.753C634.859 929.425 634.712 925.765 637.699 922.991C638.771 922.003 639.951 921.127 641.079 920.199C648.869 918.326 656.598 916.153 664.598 915.285C667.167 915.01 669.729 914.718 672.309 915.122Z" fill="#D1D1D1"/>
<path d="M853.601 460.69C849.587 460.867 846.293 458.364 842.448 457.734C837.816 456.973 833.155 456.111 828.801 454.216C824.078 452.162 822.836 447.195 826.278 444.25C827.786 442.957 829.526 442.604 831.471 443.081C835.322 444.018 839.182 444.897 843.038 445.822C844.03 446.06 845.068 446.588 845.385 444.988C846.332 446.287 846.814 447.774 847.024 449.34C847.552 453.364 849.253 456.713 852.502 459.233C852.972 459.584 853.653 459.897 853.601 460.69Z" fill="#D1D1D1"/>
<path d="M464.322 1019.92C464.481 1023.24 462.179 1024.76 459.598 1025.54C457.478 1026.18 455.879 1024.58 454.507 1023.02C451.383 1019.49 448.469 1015.75 444.527 1013.03C442.084 1011.35 439.505 1009.92 436.76 1008.79C432.757 1007.13 431.884 1005.75 431.923 1001.39C441.035 1005.26 450.362 1008.55 459.707 1011.79C461.322 1014.47 463.959 1016.55 464.322 1019.92Z" fill="#D1D1D1"/>
<path d="M749.937 682.391C744.733 682.407 740.803 678.43 740.888 673.219C740.962 668.322 745.623 663.328 750.045 663.402C754.887 663.481 758.403 667.59 758.465 673.248C758.527 678.815 755.205 682.374 749.937 682.391Z" fill="#D1D1D1"/>
<path d="M706.596 997.343C706.749 1001.84 704.446 1004.1 700.058 1003.61C698.613 1003.45 697.132 1003.11 695.794 1002.55C690.51 1000.36 685.141 1000.02 679.573 1001.26C677.208 1001.78 674.623 1002.33 672.842 999.774C675.104 997.807 677.99 997.042 680.655 995.917C684.862 994.139 688.752 991.673 693.124 990.264C696.032 991.192 698.929 992.146 701.855 993.022C704.135 993.718 705.722 995.127 706.596 997.343Z" fill="#D1D1D1"/>
<path d="M653.349 1021.44C651.726 1025.64 648.897 1026.93 644.826 1025.08C639.871 1022.83 635.029 1020.36 629.421 1020.05C627.175 1019.92 625.01 1020.43 622.799 1020.37C621.137 1020.32 619.431 1020.33 618.608 1018.44C621.857 1016.52 625.65 1016.36 629.143 1015.19C633.26 1013.82 637.438 1012.64 641.589 1011.39C644.208 1012.69 646.811 1014.06 649.459 1015.31C652.078 1016.55 653.343 1018.58 653.349 1021.44Z" fill="#D1D1D1"/>
<path d="M401.912 995.934C401.175 998.735 399.502 1000.55 396.497 1000.65C394.054 1000.73 392.035 998.898 391.207 995.762C389.035 987.601 384.301 981.339 377.418 976.571C375.824 975.463 374.294 974.174 374.662 971.846C379.527 973.925 383.813 977.035 388.445 979.526C392.415 981.665 396.271 984.002 400.172 986.261C400.546 989.525 402.405 992.515 401.912 995.934Z" fill="#D1D1D1"/>
<path d="M706.595 997.343C705.722 995.127 704.134 993.718 701.849 993.03C698.929 992.146 696.032 991.192 693.117 990.273C698.798 987.137 704.48 984.002 710.162 980.875C710.388 981.15 710.569 981.588 710.853 981.674C714.55 982.765 716.784 985.161 717.594 988.95C717.719 989.543 718.269 990.032 718.621 990.574C717.827 994.319 715.61 997.197 712.906 999.757C710.893 998.718 708.937 997.515 706.595 997.343Z" fill="#D1D1D1"/>
<path d="M721.746 974.509C723.549 972.069 726.418 971.073 728.726 969.32C731.85 966.932 735.099 964.716 738.297 962.422C740.593 962.551 742.879 962.508 745.181 962.886C751.525 963.951 753.271 967.344 750.124 972.902C748.537 973.538 747.057 974.423 745.181 974.097C739.148 973.031 733.284 973.865 727.473 975.66C725.523 976.262 723.277 976.717 721.746 974.509Z" fill="#D1D1D1"/>
<path d="M721.746 974.509C723.277 976.717 725.522 976.261 727.466 975.66C733.284 973.865 739.147 973.031 745.174 974.097C747.056 974.423 748.531 973.538 750.118 972.902C750.929 973.126 751.74 973.358 752.557 973.59C746.62 978.907 739.641 981.115 731.798 980.127C723.651 979.096 721.524 980.411 719.409 988.52C719.228 989.216 718.894 989.878 718.628 990.556C718.276 990.024 717.725 989.534 717.601 988.941C716.79 985.161 714.557 982.756 710.859 981.665C710.576 981.579 710.395 981.132 710.168 980.857C714.085 978.856 717.453 975.84 721.746 974.509Z" fill="#D1D1D1"/>
<path d="M465.41 611.487C465.41 616.01 461.924 619.505 457.325 619.596C452.534 619.688 448.48 616.027 448.463 611.595C448.452 606.828 453.101 602.469 458.182 602.498C462.088 602.521 465.41 606.657 465.41 611.487Z" fill="#D1D1D1"/>
<path d="M702.065 895.569C707.236 894.796 712.418 894.16 717.652 894.1C717.022 897.743 717.618 901.428 717.277 905.079C710.661 905.251 704.129 906.136 697.66 907.476C696.747 907.656 695.879 907.906 694.949 907.751C698.13 904.16 699.462 899.495 702.065 895.569Z" fill="#D1D1D1"/>
<path d="M653.349 1021.44C653.343 1018.58 652.078 1016.55 649.459 1015.31C646.811 1014.05 644.208 1012.69 641.589 1011.38C647.191 1009.37 652.792 1007.34 658.395 1005.33C659.291 1006.11 660.203 1006.86 661.077 1007.66C663.719 1010.07 664.7 1012.92 663.379 1016.4C662.159 1019.6 659.648 1021.31 655.843 1021.41C655.009 1021.44 654.176 1021.44 653.349 1021.44Z" fill="#D1D1D1"/>
<path d="M594.829 1036.91C595.22 1033.68 593.593 1031.56 591.092 1029.83C588.393 1027.98 585.201 1026.95 582.684 1024.8C589.783 1023.97 596.819 1022.75 603.844 1021.47C604.088 1022.15 604.298 1022.86 604.576 1023.54C607.552 1030.68 602.637 1037.43 594.829 1036.91Z" fill="#D1D1D1"/>
<path d="M401.912 995.934C402.405 992.515 400.546 989.525 400.177 986.261C406.856 989.56 413.536 992.867 420.215 996.175C419.484 999.353 416.853 1000.93 414.624 1002.87C414.432 1002.93 414.244 1002.99 414.051 1003.05C413.757 1002.61 413.303 1002.54 412.844 1002.59C408.648 1003.06 405.938 1000.71 403.613 997.678C403.109 997.025 402.711 996.295 401.912 995.934Z" fill="#D1D1D1"/>
<path d="M351.568 962.422C346.482 965.068 344.769 964.673 342.003 959.724C339.763 955.73 337.212 952.036 333.736 949.012C331.632 947.182 330.986 944.914 332.114 942.251C338.612 948.024 345.92 952.714 352.878 957.869C353.139 959.587 352.186 960.953 351.568 962.422Z" fill="#D1D1D1"/>
<path d="M535.345 1035.38C534.273 1031.16 530.52 1029.44 527.515 1027.01C526.607 1026.28 525.337 1025.97 524.821 1024.77C531.364 1025.29 537.902 1025.81 544.445 1026.34C543.895 1031.9 541.412 1034.37 535.345 1035.38Z" fill="#D1D1D1"/>
<path d="M780.226 647.716C778.237 642.609 776.059 638.431 773.173 634.67C772.379 633.636 772.81 633.318 773.757 632.956C776.342 631.957 778.939 630.981 781.462 629.846C782.665 629.306 782.863 629.823 783.084 630.787C783.481 632.507 783.685 634.091 783.169 635.935C782.16 639.555 781.74 643.341 780.226 647.716Z" fill="#D1D1D1"/>
<path d="M464.322 1019.92C463.959 1016.54 461.323 1014.46 459.701 1011.81C466.381 1013.7 473.065 1015.59 479.744 1017.47C476.587 1021.99 472.85 1023.05 467.679 1020.98C466.602 1020.55 465.654 1019.58 464.322 1019.92Z" fill="#D1D1D1"/>
<path d="M752.556 973.59C751.745 973.358 750.935 973.126 750.118 972.902C753.265 967.344 751.518 963.951 745.174 962.886C742.872 962.499 740.587 962.551 738.29 962.422C740.274 960.764 742.304 959.14 744.232 957.414C745.134 956.615 745.781 956.7 746.597 957.482C749.942 960.695 753.514 963.642 757.228 966.425C757.908 966.932 758.232 967.387 757.602 968.238C756.128 970.222 754.988 972.507 752.556 973.59Z" fill="#D1D1D1"/>
<path d="M351.568 962.422C352.186 960.953 353.145 959.587 352.872 957.869C357.46 960.575 361.939 963.453 366.237 966.597C365.528 968.762 363.611 968.822 361.842 969.106C360.987 969.243 359.982 968.805 359.376 969.81C358.128 968.616 356.626 967.817 355.095 967.069C354.369 965.171 352.833 963.899 351.568 962.422Z" fill="#D1D1D1"/>
<path d="M761.775 700.153C765.779 696.856 768.783 693.054 771.862 688.837C772.469 691.255 772.945 693.269 773.49 695.267C773.717 696.096 773.274 696.431 772.691 696.794C769.486 698.785 766.391 701.067 761.775 700.153Z" fill="#D1D1D1"/>
<path d="M529.844 1040.89C531.052 1040.52 532.253 1040.15 533.462 1039.77C533.552 1040.02 533.643 1040.27 533.734 1040.52C532.418 1041.52 530.853 1041.83 529.266 1042.07C529.464 1041.69 529.657 1041.29 529.844 1040.89Z" fill="#D1D1D1"/>
<path d="M157.008 649.981C157.11 650.548 156.963 650.945 156.311 651.002C156.396 650.554 156.39 650.055 157.008 649.981Z" fill="#D1D1D1"/>
<path d="M793.176 624.335C793.663 624.698 793.675 625.079 793.204 625.465C793.193 625.09 793.182 624.716 793.176 624.335Z" fill="#D1D1D1"/>
<path d="M992.791 729.646C992.293 729.357 992.173 728.92 992.327 728.386C992.859 728.67 992.868 729.141 992.791 729.646Z" fill="#D1D1D1"/>
<path d="M533.74 1040.52C533.649 1040.27 533.559 1040.02 533.468 1039.77C533.95 1039.59 534.46 1039.15 534.869 1039.88C534.647 1040.37 534.194 1040.45 533.74 1040.52Z" fill="#D1D1D1"/>
<path d="M395.777 678.327C395.993 678.032 396.152 678.14 396.282 678.406L396.021 678.418L395.777 678.327Z" fill="#D1D1D1"/>
<path d="M673.964 915.096C673.8 915.482 673.613 915.534 673.392 915.139C673.579 915.122 673.772 915.113 673.964 915.096Z" fill="#D1D1D1"/>
<path d="M259.873 482.244C259.884 482.653 259.669 482.823 259.277 482.817C259.306 482.455 259.47 482.227 259.873 482.244Z" fill="#D1D1D1"/>
<path d="M741.869 874.995C741.909 875.373 741.687 875.527 741.358 875.587C741.37 875.252 741.483 875.012 741.869 874.995Z" fill="#D1D1D1"/>
<path d="M854.236 461.19C854.032 461.031 853.834 460.873 853.629 460.714C854.027 460.617 854.236 460.765 854.236 461.19Z" fill="#D1D1D1"/>
<path d="M614.436 619.319C614.656 618.904 614.827 619.012 614.974 619.37C614.799 619.37 614.617 619.352 614.436 619.319Z" fill="#D1D1D1"/>
<path d="M396.872 754.077C396.713 753.861 396.554 753.645 396.396 753.43C396.764 753.492 396.883 753.736 396.872 754.077Z" fill="#D1D1D1"/>
<path d="M384.126 843.169C383.768 843.112 383.587 842.925 383.661 842.544C383.814 842.749 383.972 842.959 384.126 843.169Z" fill="#D1D1D1"/>
<path d="M439.691 232.227C439.691 231.279 438.977 230.768 438.427 230.149C431.073 221.915 422.37 215.366 412.827 209.929C401.685 203.585 389.999 198.534 377.412 195.776C375.071 195.265 372.701 194.879 370.382 194.3C367.473 193.575 365.874 191.162 366.226 188.268C366.543 185.681 368.788 183.734 371.692 183.802C376.636 183.915 381.342 185.448 386.002 186.821C404.028 192.127 420.51 200.622 435.32 212.16C444.512 219.322 451.775 228.339 457.954 238.208C458.687 239.377 459.888 240.268 460.16 241.704C460.637 244.229 459.905 246.301 457.682 247.708C455.732 248.94 452.789 248.616 451.1 246.647C448.781 243.94 446.74 240.994 444.5 238.049C442.974 244.388 439.023 245.92 433.903 242.118C422.994 234.014 410.808 228.969 397.45 226.824C390.114 225.644 382.76 226.092 375.382 226.994C364.899 228.271 354.738 230.859 344.657 233.873C338.442 235.728 332.455 238.185 326.53 240.767C318.722 244.173 311.141 248.043 304.037 252.787C302.965 253.502 302.047 254.456 300.952 255.12C298.169 256.81 296.224 256.436 294.126 253.945C292.3 251.777 292.476 249.229 294.449 246.936C298.548 242.181 304.026 239.377 309.389 236.506C328.293 226.387 348.388 219.77 369.605 216.609C375.626 215.713 381.681 214.838 387.766 215.031C400.064 215.423 411.943 217.869 423.062 223.363C428.04 225.82 433.075 228.186 437.622 231.438C438.2 231.852 438.971 231.989 439.658 232.25C439.845 232.431 440.032 232.612 440.224 232.794C440.253 232.856 440.27 232.93 440.31 232.982C440.338 233.015 440.406 233.01 440.452 233.021C440.378 232.941 440.298 232.868 440.224 232.788C440.054 232.607 439.873 232.414 439.691 232.227Z" fill="#D1D1D1"/>
<path d="M818.312 322.987C836.66 322.17 852.671 329.037 867.975 338.145C879.837 345.205 890.119 354.245 899.509 364.256C908.187 373.5 916.289 383.25 921.843 394.821C922.976 397.182 923.482 399.713 921.963 401.938C919.474 405.592 914.993 405.224 912.796 401.058C908.977 393.811 904.204 387.256 899.106 380.9C892.78 373.018 885.682 365.924 878.069 359.278C869.855 352.1 860.885 346.124 851.038 341.505C842.204 337.357 833.059 334.433 823.131 334.054C817.772 333.849 812.46 334.553 807.118 334.201C804.448 334.025 801.681 331.682 801.42 329.128C801.154 326.523 803.234 324.219 806.138 323.555C810.175 322.612 814.257 323.283 818.312 322.987Z" fill="#D1D1D1"/>
<path d="M815.29 343.167C825.881 344.439 835.095 347.151 843.429 352.542C852.541 358.439 859.864 366.196 866.945 374.306C877.889 386.825 887.141 400.519 895.519 414.82C900.428 423.208 905.501 431.533 909.071 440.618C910.539 444.353 909.243 447.366 905.998 448.614C903.363 449.625 900.565 448.138 898.943 444.75C892.205 430.704 884.369 417.277 875.855 404.275C869.314 394.299 861.95 384.941 853.805 376.162C847.966 369.862 841.729 364.25 834.256 359.994C828.438 356.68 822.122 355.158 815.601 354.228C811.898 353.7 810.051 351.595 810.294 348.059C810.458 345.624 813.407 343.167 815.29 343.167Z" fill="#D1D1D1"/>
<path d="M295.826 300.724C289.544 300.832 283.262 300.934 277.059 299.623C274.388 299.061 272.415 297.688 271.723 295.004C271.139 292.745 272.336 291.003 274.065 289.737C276.038 288.295 278.448 288.846 280.528 289.147C285.706 289.902 290.876 289.567 296.041 289.595C318.949 289.703 341.135 285.544 362.806 278.256C373.579 274.636 384.431 271.259 395.255 267.798C396.038 267.548 396.865 267.378 397.682 267.338C400.829 267.185 403.018 268.405 403.477 270.493C404.231 273.904 402.802 276.679 399.576 277.837C397.052 278.745 394.507 279.59 391.939 280.357C375.66 285.22 359.869 291.655 343.222 295.316C334.495 297.234 325.696 298.624 316.828 299.703C309.837 300.548 302.846 300.877 295.826 300.724Z" fill="#D1D1D1"/>
<path d="M729.65 179.29C729.542 191.724 727.501 203.761 721.791 214.929C718.326 221.699 713.796 227.766 708.727 233.458C705.768 236.784 702.632 239.922 699.536 243.106C698.272 244.405 696.809 245.432 694.995 245.551C692.624 245.704 690.544 244.922 689.489 242.618C688.412 240.268 688.86 238.117 690.759 236.29C697.92 229.412 704.492 222.052 709.754 213.573C713.972 206.774 716.309 199.369 717.414 191.486C718.083 186.719 718.689 181.968 718.485 177.145C718.026 166.243 715.787 155.739 711.42 145.729C709.561 141.466 709.549 138.935 711.733 136.779C713.643 134.9 716.093 134.758 718.191 136.439C719.818 137.744 720.941 139.418 721.768 141.319C725.743 150.444 728.255 159.921 729.151 169.875C729.417 173.025 729.553 176.147 729.65 179.29Z" fill="#D1D1D1"/>
<path d="M205.016 438.882C201.596 438.904 199.799 437.645 199.3 435.131C198.688 432.089 200.111 429.626 203.043 428.236C211.661 424.155 220.523 420.625 228.994 416.216C244.955 407.908 259.98 398.169 274.099 387.024C277.286 384.51 280.245 381.701 283.301 379.016C286.159 376.508 289.505 376.298 291.733 378.5C294.102 380.838 294.114 383.772 291.563 386.303C287.423 390.406 282.865 394.038 278.3 397.648C263.303 409.508 247.212 419.615 230.151 428.253C222.961 431.89 215.613 435.142 208.185 438.223C207.085 438.672 205.934 439.2 205.016 438.882Z" fill="#D1D1D1"/>
<path d="M752.97 188.257C753.429 201.565 747.635 212.597 740.185 222.965C734.645 230.672 728.023 237.329 720.107 242.635C718.559 243.674 716.937 244.547 715.162 245.115C712.56 245.949 710.014 244.973 708.585 242.465C707.236 240.092 707.735 237.89 709.782 236.251C713.161 233.544 716.739 231.115 720.073 228.317C726.548 222.875 731.408 216.218 735.864 209.158C740.627 201.61 742.418 193.381 741.88 184.535C741.743 182.31 741.307 180.153 740.933 177.974C740.666 176.413 740.394 174.796 741.245 173.36C742.356 171.482 743.802 169.705 746.223 169.938C748.644 170.176 750.668 171.397 751.286 174.007C752.404 178.689 753.146 183.422 752.97 188.257Z" fill="#D1D1D1"/>
<path d="M193.137 495.592C193.16 493.714 194.311 491.989 195.881 490.456C203.632 482.891 211.536 475.48 219.071 467.705C229.034 457.428 238.457 446.657 246.435 434.705C248.935 430.96 252.632 430.721 255.376 434.029C256.93 435.902 257.049 437.894 255.733 439.92C251.311 446.748 246.435 453.251 241.224 459.477C232.016 470.48 222.014 480.752 211.711 490.735C208.593 493.759 205.412 496.721 202.231 499.678C200.417 501.364 198.308 501.676 196.074 500.643C194.129 499.752 193.148 498.174 193.137 495.592Z" fill="#D1D1D1"/>
<path d="M827.583 248.911C827.616 253.15 825.427 255.982 823.12 258.604C816.781 265.811 808.9 270.958 800.202 274.829C790.563 279.12 780.55 282.343 770.174 284.295C765.32 285.209 760.455 286.344 755.442 285.702C752.84 285.368 751.088 283.841 750.851 281.265C750.623 278.75 751.876 276.725 754.365 275.884C758.142 274.608 762.173 274.812 766.063 274.057C781.701 271.032 796.72 266.459 809.483 256.476C812.79 253.888 815.993 251.005 817.756 246.908C818.941 244.162 821.532 243.077 824.476 244.025C826.93 244.814 827.701 246.874 827.583 248.911Z" fill="#D1D1D1"/>
<path d="M360.493 163.145C372.065 162.952 381.795 166.113 391.269 170.176C399.48 173.695 406.969 178.456 413.932 184.046C415.225 185.084 416.427 186.231 417.221 187.769C418.372 190.005 418.224 191.963 416.529 193.904C414.754 195.94 412.691 195.759 410.462 195.05C408.246 194.346 406.85 192.479 405.138 191.112C393.43 181.804 380.196 176.044 365.437 173.871C361.405 173.275 357.329 173.871 353.315 174.614C351.013 175.04 348.739 175.301 346.76 173.502C343.794 170.801 344.628 166.084 348.444 164.791C352.685 163.344 357.096 162.941 360.493 163.145Z" fill="#D1D1D1"/>
<path d="M469.515 338.571C456.236 338.309 443.025 339.217 429.836 340.631C428.091 340.818 426.316 340.869 424.564 340.818C421.048 340.727 418.417 338.854 417.515 335.949C416.625 333.088 417.612 330.393 420.43 328.151C421.298 327.465 422.221 326.812 423.191 326.284C454.172 309.412 487.115 301.774 522.303 306.246C538.287 308.277 553.182 313.935 566.444 323.412C572.165 327.499 576.157 333.02 579.598 339.008C580.727 340.966 581.305 343.116 580.925 345.426C580.364 348.814 578 350.902 574.597 350.794C572.664 350.732 570.629 350.687 568.831 350.068C556.839 345.948 544.382 344.166 531.896 342.594C511.185 339.984 490.364 338.996 469.515 338.571Z" fill="#D1D1D1"/>
<path d="M696.118 377.308C695.817 377.263 695.511 377.217 695.21 377.172C694.649 376.599 693.877 376.599 693.175 376.4C681.96 373.217 670.2 375.01 658.894 372.655C657.301 372.144 655.73 371.593 654.381 370.56C650.525 367.616 650.525 362.434 654.789 360.164C665.703 354.358 676.947 349.234 689.489 348.213C721.513 345.608 749.608 355.142 773.99 375.946C780.55 381.547 786.838 387.45 792.973 393.504C795.949 396.438 796.391 400.042 794.197 402.721C791.992 405.416 788.505 405.53 785.006 402.993C777.618 397.631 769.056 394.833 760.585 391.882C741.267 385.146 721.349 380.974 701.113 378.199C699.695 378.006 698.119 378.716 696.866 377.507C696.684 377.2 696.429 377.137 696.118 377.308Z" fill="#D1D1D1"/>
<path d="M509.018 347.231C529.901 347.373 548.714 349.518 567.38 353.167C586.221 356.85 604.784 361.549 622.917 367.91C641.146 374.301 658.009 383.33 673.868 394.299C674.475 394.719 675.053 395.196 675.563 395.723C677.684 397.903 677.995 401.228 676.306 403.311C674.684 405.314 671.549 405.808 669.003 404.27C666.548 402.789 664.184 401.143 661.802 399.537C642.513 386.531 621.228 378.143 598.916 372.048C582.921 367.677 566.739 364.188 550.37 361.656C542.063 360.374 533.694 359.387 525.263 359.182C522.116 359.103 518.981 358.796 515.833 358.723C495.903 358.241 476.347 361.151 457.002 365.612C446.439 368.047 436.045 371.117 425.976 375.203C424.366 375.856 422.71 376.712 420.889 376.344C418.638 375.884 416.943 374.561 416.399 372.285C415.77 369.658 416.756 367.525 419.086 366.129C424.79 362.712 431.09 360.76 437.384 358.859C453.906 353.865 470.774 350.647 487.903 348.519C495.563 347.566 503.246 347.928 509.018 347.231Z" fill="#D1D1D1"/>
<path d="M544.246 286.247C558.983 287.507 573.249 290.838 587.191 295.742C596.314 298.954 604.95 303.255 613.511 307.648C621.579 311.785 630.056 313.396 638.964 313.453C648.047 313.51 657.148 313.294 666.219 313.646C680.179 314.185 694.127 315.065 707.752 318.527C713.337 319.945 718.695 321.994 723.815 324.627C726.18 325.842 727.376 327.964 727.098 330.563C726.837 333.026 725.125 334.422 722.744 335.029C721.48 335.353 720.3 334.99 719.235 334.502C705.399 328.202 690.674 326.38 675.705 325.677C664.422 325.143 653.162 324.479 641.85 325.075C629.183 325.746 617.276 322.924 606.021 316.903C592.748 309.799 578.862 304.185 564.041 301.115C556.891 299.634 549.696 298.449 542.477 297.371C541.304 297.194 540.102 296.888 539.031 296.394C536.638 295.298 535.419 292.909 536.008 290.441C536.609 287.91 538.31 286.474 540.918 286.252C542.018 286.167 543.135 286.247 544.246 286.247Z" fill="#D1D1D1"/>
<path d="M658.894 372.66C670.2 375.01 681.96 373.223 693.174 376.406C693.877 376.605 694.649 376.605 695.21 377.178C695.284 378.08 696.033 378.347 696.673 378.676C720.3 390.9 742.157 405.803 763.001 422.288C769.119 427.123 775.242 431.913 780.515 437.691C781.899 439.205 783.169 440.738 783.141 443.019C783.101 447.196 779.41 449.574 775.656 447.712C774.919 447.349 774.142 446.901 773.627 446.288C766.068 437.31 756.219 431.067 747.074 423.991C720.6 403.504 691.558 387.421 661.037 373.886C660.294 373.54 659.609 373.069 658.894 372.66Z" fill="#D1D1D1"/>
<path d="M590.927 272.866C596.144 273.387 602.228 274.994 608.091 277.326C615.065 280.101 622.351 281.117 629.733 281.86C643.641 283.262 657.583 284.556 670.438 290.775C671.436 291.258 672.45 291.746 673.341 292.393C675.807 294.186 676.635 297.2 675.382 299.47C674.055 301.876 671.282 302.903 668.414 301.768C663.849 299.963 659.341 298.011 654.55 296.877C646.976 295.083 639.241 294.238 631.513 293.602C621.892 292.807 612.388 291.684 603.333 288.012C598.695 286.134 593.796 285.055 588.932 283.931C586.392 283.347 584.106 282.337 583.307 279.562C582.099 275.362 584.707 272.707 590.927 272.866Z" fill="#D1D1D1"/>
<path d="M696.117 377.309C696.429 377.138 696.684 377.2 696.871 377.507C696.559 377.666 696.304 377.614 696.117 377.309Z" fill="#D1D1D1"/>
<path d="M472.475 474.527C472.94 474.538 473.377 474.618 473.626 475.083C473.24 474.901 472.86 474.714 472.475 474.527Z" fill="#D1D1D1"/>
<path d="M440.236 232.794C440.309 232.873 440.389 232.947 440.463 233.027C440.411 233.015 440.344 233.015 440.321 232.987C440.276 232.936 440.265 232.862 440.236 232.794Z" fill="#D1D1D1"/>
<path d="M439.691 232.227C439.873 232.414 440.054 232.601 440.236 232.788V232.794C440.049 232.612 439.862 232.431 439.669 232.25L439.691 232.227Z" fill="#D1D1D1"/>
</svg>
